PathFileType	4	(X/Y/Z)	D:\Share\Shared_Data\Ergonomics\Sit To Stand Pertubation\S3\Unperturbed.trc
DataRate	CameraRate	NumFrames	NumMarkers	Units	OrigDataRate	OrigDataStartFrame	OrigNumFrames	
100	100	8	18	m	100	1560	191
Frame#	Time	R_Thigh			R_ASIS			R_Pelvis			V_Sacral			L_Pelvis			L_ASIS			Clavical			R_Acromium			L_Acromium			Sternum			Torso			R_Thigh_Med			R_Thigh_Lat			R_Shank_Med			R_Shank_Lat			R_Shank			R_Heel			R_Toe			
		X1	Y1	Z1	X2	Y2	Z2	X3	Y3	Z3	X4	Y4	Z4	X5	Y5	Z5	X6	Y6	Z6	X7	Y7	Z7	X8	Y8	Z8	X9	Y9	Z9	X10	Y10	Z10	X11	Y11	Z11	X12	Y12	Z12	X13	Y13	Z13	X14	Y14	Z14	X15	Y15	Z15	X16	Y16	Z16	X17	Y17	Z17	X18	Y18	Z18	

1560	15.59	0.37452148	0.66798773	0.11895087	0.31320813	0.90694232	0.12874896	0.20850754	0.92840057	0.17985335	0.11174117	0.97247021	-0.011112425	0.22299818	0.94027014	-0.2055811	0.31899661	0.90089246	-0.15075021	0.39489075	1.3231746	-0.013803802	0.3549556	1.3898525	0.15076656	0.37000375	1.3844808	-0.16970522	0.40486725	1.2427721	-0.0090953655	0.40083899	1.3072037	-0.078135796	0.38787863	0.45982678	0.0732752	0.35014371	0.44706967	0.1736058	0.26105609	0.10699561	0.092479591	0.23699437	0.099704102	0.1729749	0.26915634	0.28031866	0.18611905	0.18037738	0.05277483	0.12279484	0.39864484	0.05128344	0.13586794
1561	15.6	0.37612082	0.66855444	0.11804343	0.31724084	0.9108783	0.12888358	0.21219234	0.93128613	0.18010364	0.11504746	0.97470508	-0.010968022	0.22690173	0.94340924	-0.20505273	0.32301804	0.90473468	-0.15057712	0.39311655	1.3287521	-0.013865312	0.35235861	1.39485	0.15087668	0.36720602	1.3897999	-0.16973396	0.40429242	1.2486731	-0.0092476263	0.39934332	1.3130286	-0.078281609	0.3858468	0.46020731	0.071677727	0.34856152	0.4479101	0.17213686	0.26104822	0.10698716	0.092441833	0.23702759	0.099887299	0.17296065	0.26814813	0.28092529	0.18527292	0.18039037	0.052844009	0.12277789	0.39868558	0.051393959	0.13592456
1562	15.61	0.37775104	0.66899487	0.11710589	0.32117358	0.91438928	0.12914096	0.21574104	0.93378864	0.1805009	0.11826878	0.97663037	-0.010776221	0.23071893	0.94625769	-0.20448694	0.32699802	0.90824158	-0.15036546	0.39139301	1.3338199	-0.013874218	0.3498038	1.3993457	0.15104453	0.36442694	1.3946249	-0.16970796	0.40369455	1.2540402	-0.0093685198	0.39782013	1.3183258	-0.078382637	0.38394724	0.46049814	0.070017654	0.34714355	0.44863553	0.17064894	0.26103006	0.10696156	0.092386871	0.23706503	0.10003284	0.17290219	0.26724072	0.28146313	0.18439633	0.18038962	0.052903934	0.12276309	0.39873907	0.051429852	0.13594525
1563	15.62	0.3794118	0.66930615	0.11616895	0.32499106	0.91747034	0.12947914	0.21914848	0.93592975	0.18099745	0.12139761	0.97826355	-0.010544273	0.23441226	0.9488092	-0.20394803	0.33095682	0.9114306	-0.15010352	0.38973383	1.3383846	-0.013828962	0.34730154	1.4033466	0.15127371	0.36167227	1.3989584	-0.16963142	0.40308212	1.2588789	-0.0094496002	0.39628412	1.323099	-0.078434608	0.3821976	0.46069812	0.068321533	0.34587088	0.44924634	0.16914664	0.26099097	0.10691633	0.092314133	0.23709967	0.10014491	0.17280486	0.26641827	0.28192746	0.18349162	0.18037206	0.052949509	0.12274916	0.39880399	0.051339741	0.13591408
1564	15.63	0.38109268	0.66948859	0.11526191	0.32866919	0.92013306	0.12986517	0.22241479	0.93774133	0.18154559	0.12442802	0.97962744	-0.010280499	0.23795622	0.95106311	-0.20347502	0.33491129	0.91432056	-0.14978265	0.38814224	1.342457	-0.013733335	0.34485855	1.4068639	0.15156631	0.35894833	1.4028077	-0.16951039	0.40246152	1.2632017	-0.0094823914	0.39474783	1.3273577	-0.078434387	0.38060028	0.46080774	0.066617157	0.34471738	0.44974823	0.16763855	0.26092163	0.10685058	0.092225754	0.23712616	0.10022596	0.17267598	0.26566235	0.28231729	0.18256752	0.18033687	0.052970753	0.1227303	0.39887668	0.05112558	0.13583441
1565	15.64	0.38277484	0.66954913	0.11441299	0.33218799	0.92240778	0.13027907	0.22554311	0.93926282	0.18210472	0.12735609	0.98074969	-0.0099934607	0.24133853	0.95302631	-0.20307446	0.33886896	0.91692828	-0.14940215	0.38661411	1.3460562	-0.013594149	0.34248022	1.4099177	0.15192215	0.35626205	1.4061859	-0.16935316	0.40183704	1.2670271	-0.009458786	0.39322116	1.3311168	-0.078380791	0.37914359	0.46083099	0.064933037	0.34365158	0.45015198	0.16613814	0.260815	0.10676488	0.092127235	0.23714127	0.10027688	0.1725257	0.26495425	0.2826362	0.18163885	0.18028708	0.052952183	0.12269606	0.39895081	0.050846043	0.13573013
1566	15.65	0.38443481	0.66950122	0.11364899	0.33554208	0.92434106	0.13070888	0.22853796	0.94053784	0.18264914	0.13017992	0.98166119	-0.0096920261	0.24455582	0.95471393	-0.20273586	0.34281625	0.91926459	-0.14897461	0.38514264	1.3492081	-0.013417947	0.3401745	1.4125363	0.15234067	0.35362305	1.4091122	-0.16916884	0.40121219	1.2703806	-0.0093718204	0.39171295	1.3343986	-0.078274406	0.37780518	0.46077719	0.063295803	0.34263959	0.45047345	0.16466174	0.26066757	0.10666134	0.092027023	0.23714204	0.10029704	0.17236803	0.26427679	0.2828927	0.18072398	0.18023027	0.052875633	0.12263412	0.39901968	0.050569588	0.13562856
1567	15.66	0.38604861	0.66936377	0.1129941	0.33873929	0.9259884	0.13114783	0.23140477	0.94161078	0.18317084	0.13289955	0.98239569	-0.0093852825	0.24760986	0.95614905	-0.20244304	0.346702	0.921328	-0.14853355	0.38372266	1.3519474	-0.013208165	0.33795413	1.4147584	0.15282271	0.3510455	1.4116134	-0.16896542	0.40059097	1.2732936	-0.009216877	0.39023221	1.3372321	-0.078116074	0.37655609	0.46066034	0.061727802	0.3416485	0.4507316	0.16322615	0.26047952	0.10654338	0.091934593	0.23712457	0.10028452	0.17221931	0.26361517	0.28309857	0.17984163	0.18017612	0.052727573	0.12253609	0.3990784	0.050341091	0.13554822
